# xmcd
# 
# Track frame offsets:
#     150
#     13497
#     25167
#     40003
#     56930
#     78710
#     104613
#     121517
#     153259
#     170022
#     183582
#     198705
#     213451
#     230907
#     244002
#     263467
#     279890
#     297670
# 
# Disc length: 4496
# 
# Revision: 1
# Processed by: cddbd v1.5.2PL0 Copyright (c) Steve Scherf et al.
# Submitted via: BonkEnc v1.0.6
# 
DISCID=0c118e12
DTITLE=Various Artist - Blues Ballads
DYEAR=2006
DGENRE=Blues
TTITLE0=Muddy Waters - Mannish Boy
TTITLE1=Etta James - I'd Rather Go Blind
TTITLE2=Gary Moore - Parisienne Walkways
TTITLE3=Flavium - Nightlife
TTITLE4=John Hiatt - Feels Like Rain
TTITLE5=Robben Ford - I Just Want To Make Love To You
TTITLE6=Jonny Lang - Still Wonder
TTITLE7=The Blessing - Hurricane Room
TTITLE8=Joe Cocker - Many Rivers To Cross
TTITLE9=John Lee Hooker - One Bourbon, One Scotch, One Beer
TTITLE10=John Mayall's Bluesbreakers with Peter Green - Double Trouble
TTITLE11=The Shadows - Albatross
TTITLE12=The Spencer David Group - Nobody Knows You When You're Down And Out
TTITLE13=Howlin' Wolf - Evil (Is Going On)
TTITLE14=Alex Korner Blues Inc. - Night Time Is The Right Time
TTITLE15=Joe Walsh - Help Me Tru The Night
TTITLE16=Dobie Gray - Drift Away
TTITLE17=The Allman Brothers Band - Stormy Monday
EXTD=
EXTT0=
EXTT1=
EXTT2=
EXTT3=
EXTT4=
EXTT5=
EXTT6=
EXTT7=
EXTT8=
EXTT9=
EXTT10=
EXTT11=
EXTT12=
EXTT13=
EXTT14=
EXTT15=
EXTT16=
EXTT17=
PLAYORDER=
